<?xml version="1.0" standalone="no"?>
<svg xmlns="http://www.w3.org/2000/svg" viewBox="0 0 112.08 36" width="112.08" height="36"><g fill="#f29b18" color="#f29b18" transform="translate(84.08, 4) scale(0.21875)"><svg width="128.0" height="128.0" x="0.0" y="0.0" viewBox="0 0 128 128"><path d="M71.9,74.2c0.1,0,0.2,0.1,0.3,0.1c0.4,0,0.8-0.3,1-0.7l2.5-7c0.2-0.5-0.1-1.1-0.6-1.3c-0.5-0.2-1.1,0.1-1.3,0.6l-2.5,7  C71.1,73.5,71.4,74,71.9,74.2z"></path><path d="M69.5,59.1l-6.6,3.1c-0.5,0.2-0.7,0.9-0.5,1.4c0.2,0.4,0.5,0.6,0.9,0.6c0.1,0,0.3,0,0.4-0.1l6.6-3.1  c0.5-0.2,0.7-0.9,0.5-1.4C70.6,59.1,70,58.9,69.5,59.1z"></path><path d="M71.8,52.5c0.2-0.5-0.1-1.1-0.6-1.3l-6.9-2.5c-0.5-0.2-1.1,0.1-1.3,0.6c-0.2,0.5,0.1,1.1,0.6,1.3l6.9,2.5  c0.1,0,0.2,0.1,0.4,0.1C71.3,53.2,71.6,52.9,71.8,52.5z"></path><path d="M77,48.3c0.1,0,0.3,0,0.4-0.1c0.5-0.2,0.7-0.9,0.5-1.4l-3.1-6.7c-0.2-0.5-0.9-0.7-1.4-0.5C73,39.8,72.8,40.5,73,41l3.1,6.7  C76.3,48,76.6,48.3,77,48.3z"></path><path d="M84.9,49.2c0.4,0,0.8-0.3,1-0.7l2.5-7c0.2-0.5-0.1-1.1-0.6-1.3c-0.5-0.2-1.1,0.1-1.3,0.6l-2.5,7c-0.2,0.5,0.1,1.1,0.6,1.3  C84.6,49.2,84.7,49.2,84.9,49.2z"></path><path d="M89.7,55.5c0.1,0,0.3,0,0.4-0.1l6.6-3.1c0.5-0.2,0.7-0.9,0.5-1.4c-0.2-0.5-0.9-0.7-1.4-0.5l-6.6,3.1  c-0.5,0.2-0.7,0.9-0.5,1.4C89,55.2,89.4,55.5,89.7,55.5z"></path><path d="M117.5,27.1H30.8c-3-14.1-11.2-15-11.9-15.1h-6.3c-1-2.4-3.3-4.5-6.1-4.5C2.9,7.5,0,10.4,0,14c0,3.6,2.9,6.6,6.5,6.6  c2.8,0,5.1-2.2,6.1-4.6h5.9c0.2,0,5.7,1.7,7.8,13.2c2.7,15.3,9.7,53.7,9.7,53.7c0,4.3,2.6,12.1,12.2,12.1h37l-1.5-3.9H48.1  c-4.1,0-5.9-3-6.7-5.1c6.5-0.4,24.3-1.6,40-2.7L80,78.4c-16,1.1-33.7,2.3-39.4,2.7C39.3,74.6,34.4,47,31.7,32h85.1  c3.9,0,6.7,3.2,6.2,7.1l-3.6,29.4c0,0.1-0.1,0.7-0.5,1.5l4.4,2.2c0.8-1.7,1-2.9,1-3.1l3.7-30.2C128.7,32.4,124.1,27.1,117.5,27.1z"></path><path d="M107.7,80.5l8.4-3.3c0.8-0.3,1.3-1,1.3-1.8c0-0.8-0.4-1.6-1.1-2L80.9,55.5c-0.7-0.4-1.6-0.3-2.3,0.3  C78,56.3,77.7,57.2,78,58l12,38.7c0.2,0.8,1,1.4,1.8,1.5c0.8,0.1,1.6-0.4,2-1.1l4.8-9.2l10.3,13.7c0.3,0.4,0.8,0.7,1.4,0.8  c0.1,0,0.2,0,0.3,0c0.4,0,0.9-0.1,1.3-0.4l6.3-4.9c0.4-0.3,0.7-0.8,0.8-1.4c0.1-0.6-0.1-1.1-0.4-1.6L107.7,80.5z M110.9,97.4  l-11-14.6c-0.4-0.5-1-0.8-1.6-0.8c-0.1,0-0.1,0-0.2,0c-0.7,0.1-1.3,0.5-1.7,1.1l-4,7.7l-9.1-29.3l26.9,13.6l-6.6,2.6  c-0.6,0.2-1.1,0.8-1.2,1.4c-0.2,0.6,0,1.3,0.4,1.8l11.2,14.2L110.9,97.4z"></path><path d="M99.2,103.7c-4.7,0-8.6,3.9-8.6,8.7c0,4.8,3.9,8.7,8.6,8.7c4.7,0,8.6-3.9,8.6-8.7C107.8,107.6,103.9,103.7,99.2,103.7z   M99.2,116.9c-2.5,0-4.5-2-4.5-4.5c0-2.5,2-4.5,4.5-4.5c2.5,0,4.5,2,4.5,4.5C103.7,114.8,101.7,116.9,99.2,116.9z"></path><path d="M49.7,103.7c-4.7,0-8.6,3.9-8.6,8.7c0,4.8,3.9,8.7,8.6,8.7c4.7,0,8.6-3.9,8.6-8.7C58.3,107.6,54.4,103.7,49.7,103.7z   M49.7,116.9c-2.5,0-4.5-2-4.5-4.5c0-2.5,2-4.5,4.5-4.5c2.5,0,4.5,2,4.5,4.5C54.2,114.8,52.2,116.9,49.7,116.9z"></path></svg></g><path fill="#01427c" fill-rule="nonzero" d="M4.03 20.81L0 20.81L0 0.19L4.25 0.19L6.14 10.06L6.14 0.19L10.13 0.19L10.13 20.81L6.10 20.81L4.03 10.49L4.03 20.81ZM20.47 20.81L11.95 20.81L11.95 0.19L20.21 0.19L20.21 4.18L16.15 4.18L16.15 8.18L20.04 8.18L20.04 12.07L16.15 12.07L16.15 16.80L20.47 16.80L20.47 20.81ZM27.74 20.81L23.62 20.81L23.62 4.15L21.17 4.15L21.17 0.19L30.19 0.19L30.19 4.15L27.74 4.15L27.74 20.81ZM36.24 21Q33.43 21 32.18 19.61Q30.94 18.22 30.94 15.12L30.94 15.12L30.94 13.10L34.99 13.10L34.99 15.67Q34.99 17.21 35.98 17.21L35.98 17.21Q36.53 17.21 36.74 16.88Q36.96 16.56 36.96 15.79L36.96 15.79Q36.96 14.78 36.72 14.12Q36.48 13.46 36.11 13.02Q35.74 12.58 34.78 11.64L34.78 11.64L33.00 9.86Q30.94 7.85 30.94 5.40L30.94 5.40Q30.94 2.76 32.15 1.38Q33.36 0 35.69 0L35.69 0Q38.47 0 39.70 1.48Q40.92 2.95 40.92 6.10L40.92 6.10L36.72 6.10L36.70 4.68Q36.70 4.27 36.47 4.03Q36.24 3.79 35.83 3.79L35.83 3.79Q35.35 3.79 35.11 4.06Q34.87 4.32 34.87 4.78L34.87 4.78Q34.87 5.78 36.02 6.86L36.02 6.86L38.42 9.17Q39.26 9.98 39.82 10.72Q40.37 11.45 40.70 12.44Q41.04 13.44 41.04 14.81L41.04 14.81Q41.04 17.86 39.92 19.43Q38.81 21 36.24 21L36.24 21ZM46.51 20.81L42.41 20.81L42.41 0.19L46.51 0.19L46.51 7.56L48.46 7.56L48.46 0.19L52.56 0.19L52.56 20.81L48.46 20.81L48.46 11.45L46.51 11.45L46.51 20.81ZM59.30 21Q56.81 21 55.51 19.48Q54.22 17.95 54.22 15.19L54.22 15.19L54.22 5.38Q54.22 2.71 55.51 1.36Q56.81 0 59.30 0L59.30 0Q61.80 0 63.10 1.36Q64.39 2.71 64.39 5.38L64.39 5.38L64.39 15.19Q64.39 17.98 63.10 19.49Q61.80 21 59.30 21L59.30 21ZM59.30 17.21Q59.86 17.21 60.05 16.73Q60.24 16.25 60.24 15.38L60.24 15.38L60.24 5.30Q60.24 4.63 60.06 4.21Q59.88 3.79 59.33 3.79L59.33 3.79Q58.30 3.79 58.30 5.35L58.30 5.35L58.30 15.41Q58.30 16.30 58.51 16.75Q58.73 17.21 59.30 17.21L59.30 17.21ZM66.05 20.81L66.05 0.19L71.50 0.19Q73.97 0.19 75.02 1.79Q76.08 3.38 76.08 6.46L76.08 6.46Q76.08 9.53 75.14 11.09Q74.21 12.65 71.78 12.65L71.78 12.65L70.10 12.65L70.10 20.81L66.05 20.81ZM70.10 8.93L70.34 8.93Q71.09 8.93 71.44 8.65Q71.78 8.38 71.89 7.86Q72 7.34 72 6.38L72 6.38Q72 5.09 71.71 4.51Q71.42 3.94 70.56 3.94L70.56 3.94L70.10 3.94L70.10 8.93Z" transform="translate(0, 7.5)"></path></svg>